<?xml version="1.0" encoding="us-ascii" standalone="no"?><svg xmlns="http://www.w3.org/2000/svg" xmlns:xlink="http://www.w3.org/1999/xlink" contentStyleType="text/css" height="614px" preserveAspectRatio="none" style="width:411px;height:614px;background:#FFFFFF;" version="1.1" viewBox="0 0 411 614" width="411px" zoomAndPan="magnify"><defs/><g><text fill="#000000" font-family="sans-serif" font-size="14" font-weight="bold" lengthAdjust="spacing" textLength="73" x="162" y="22.9951">overview</text><!--cluster SFH Management Plattform--><g id="cluster_SFH Management Plattform"><rect fill="none" height="129.89" rx="2.5" ry="2.5" style="stroke:#181818;stroke-width:1.0;" width="229" x="154" y="478.6869"/><path d="M377,478.6869 L377,487.9838 L367,497.9838 L154,497.9838 " fill="none" style="stroke:#181818;stroke-width:1.0;"/><text fill="#000000" font-family="sans-serif" font-size="14" font-weight="bold" lengthAdjust="spacing" textLength="213" x="157" y="492.682">SFH Management Plattform</text></g><!--cluster Compose File--><g id="cluster_Compose File"><rect fill="none" height="203.59" rx="2.5" ry="2.5" style="stroke:#181818;stroke-width:1.0;" width="398" x="7" y="144.0969"/><path d="M123,144.0969 L123,153.3937 L113,163.3937 L7,163.3937 " fill="none" style="stroke:#181818;stroke-width:1.0;"/><text fill="#000000" font-family="sans-serif" font-size="14" font-weight="bold" lengthAdjust="spacing" textLength="106" x="10" y="158.092">Compose File</text></g><!--entity nats--><g id="elem_nats"><rect fill="#F1F1F1" height="78.8906" rx="2.5" ry="2.5" style="stroke:#181818;stroke-width:0.5;" width="90" x="250" y="513.6869"/><rect fill="#F1F1F1" height="10" style="stroke:#181818;stroke-width:0.5;" width="15" x="320" y="518.6869"/><rect fill="#F1F1F1" height="2" style="stroke:#181818;stroke-width:0.5;" width="4" x="318" y="520.6869"/><rect fill="#F1F1F1" height="2" style="stroke:#181818;stroke-width:0.5;" width="4" x="318" y="524.6869"/><text fill="#000000" font-family="sans-serif" font-size="14" lengthAdjust="spacing" textLength="33" x="265" y="546.682">Logs</text><text fill="#000000" font-family="sans-serif" font-size="14" lengthAdjust="spacing" textLength="12" x="265" y="562.9789">&amp;</text><text fill="#000000" font-family="sans-serif" font-size="14" lengthAdjust="spacing" textLength="50" x="265" y="579.2757">Metrics</text></g><!--entity mpnats--><g id="elem_mpnats"><ellipse cx="206" cy="553.1269" fill="#F1F1F1" rx="8" ry="8" style="stroke:#181818;stroke-width:0.5;"/><text fill="#000000" font-family="sans-serif" font-size="14" lengthAdjust="spacing" textLength="30" x="191" y="583.122">nats</text></g><!--entity telegraf--><g id="elem_telegraf"><rect fill="#F1F1F1" height="46.2969" rx="2.5" ry="2.5" style="stroke:#181818;stroke-width:0.5;" width="92" x="160" y="285.3869"/><rect fill="#F1F1F1" height="10" style="stroke:#181818;stroke-width:0.5;" width="15" x="232" y="290.3869"/><rect fill="#F1F1F1" height="2" style="stroke:#181818;stroke-width:0.5;" width="4" x="230" y="292.3869"/><rect fill="#F1F1F1" height="2" style="stroke:#181818;stroke-width:0.5;" width="4" x="230" y="296.3869"/><text fill="#000000" font-family="sans-serif" font-size="14" lengthAdjust="spacing" textLength="52" x="175" y="318.382">telegraf</text></g><!--entity loki--><g id="elem_loki"><path d="M346.5,189.5969 C346.5,179.5969 368,179.5969 368,179.5969 C368,179.5969 389.5,179.5969 389.5,189.5969 L389.5,214.8937 C389.5,224.8937 368,224.8937 368,224.8937 C368,224.8937 346.5,224.8937 346.5,214.8937 L346.5,189.5969 " fill="#F1F1F1" style="stroke:#181818;stroke-width:0.5;"/><path d="M346.5,189.5969 C346.5,199.5969 368,199.5969 368,199.5969 C368,199.5969 389.5,199.5969 389.5,189.5969 " fill="none" style="stroke:#181818;stroke-width:0.5;"/><text fill="#000000" font-family="sans-serif" font-size="14" lengthAdjust="spacing" textLength="23" x="356.5" y="216.592">loki</text></g><!--entity logfmt--><g id="elem_logfmt"><ellipse cx="343" cy="308.5369" fill="#F1F1F1" rx="8" ry="8" style="stroke:#181818;stroke-width:0.5;"/><text fill="#000000" font-family="sans-serif" font-size="14" lengthAdjust="spacing" textLength="43" x="321.5" y="338.532">logfmt</text></g><!--entity logql--><g id="elem_logql"><ellipse cx="303" cy="202.2369" fill="#F1F1F1" rx="8" ry="8" style="stroke:#181818;stroke-width:0.5;"/><text fill="#000000" font-family="sans-serif" font-size="14" lengthAdjust="spacing" textLength="43" x="281.5" y="232.232">LogQL</text></g><!--entity oinflux--><g id="elem_oinflux"><path d="M23.5,189.5969 C23.5,179.5969 51,179.5969 51,179.5969 C51,179.5969 78.5,179.5969 78.5,189.5969 L78.5,214.8937 C78.5,224.8937 51,224.8937 51,224.8937 C51,224.8937 23.5,224.8937 23.5,214.8937 L23.5,189.5969 " fill="#F1F1F1" style="stroke:#181818;stroke-width:0.5;"/><path d="M23.5,189.5969 C23.5,199.5969 51,199.5969 51,199.5969 C51,199.5969 78.5,199.5969 78.5,189.5969 " fill="none" style="stroke:#181818;stroke-width:0.5;"/><text fill="#000000" font-family="sans-serif" font-size="14" lengthAdjust="spacing" textLength="35" x="33.5" y="216.592">influx</text></g><!--entity ilp--><g id="elem_ilp"><ellipse cx="73" cy="308.5369" fill="#F1F1F1" rx="8" ry="8" style="stroke:#181818;stroke-width:0.5;"/><text fill="#000000" font-family="sans-serif" font-size="14" lengthAdjust="spacing" textLength="128" x="9" y="338.532">Influx Line Protocol</text></g><!--entity iql--><g id="elem_iql"><ellipse cx="123" cy="202.2369" fill="#F1F1F1" rx="8" ry="8" style="stroke:#181818;stroke-width:0.5;"/><text fill="#000000" font-family="sans-serif" font-size="14" lengthAdjust="spacing" textLength="53" x="96.5" y="232.232">InfluxQL</text></g><!--entity grafana--><g id="elem_grafana"><rect fill="#F1F1F1" height="46.2969" rx="2.5" ry="2.5" style="stroke:#181818;stroke-width:0.5;" width="91" x="167.5" y="179.0969"/><rect fill="#F1F1F1" height="10" style="stroke:#181818;stroke-width:0.5;" width="15" x="238.5" y="184.0969"/><rect fill="#F1F1F1" height="2" style="stroke:#181818;stroke-width:0.5;" width="4" x="236.5" y="186.0969"/><rect fill="#F1F1F1" height="2" style="stroke:#181818;stroke-width:0.5;" width="4" x="236.5" y="190.0969"/><text fill="#000000" font-family="sans-serif" font-size="14" lengthAdjust="spacing" textLength="51" x="182.5" y="212.092">grafana</text></g><!--entity user--><g id="elem_user"><ellipse cx="213" cy="51.2969" fill="#F1F1F1" rx="8" ry="8" style="stroke:#181818;stroke-width:0.5;"/><path d="M213,59.2969 L213,86.2969 M200,67.2969 L226,67.2969 M213,86.2969 L200,101.2969 M213,86.2969 L226,101.2969 " fill="none" style="stroke:#181818;stroke-width:0.5;"/><text fill="#000000" font-family="sans-serif" font-size="14" lengthAdjust="spacing" textLength="30" x="198" y="115.792">YOU</text></g><!--link mpnats to nats--><g id="link_mpnats_nats"><path d="M215.39,553.1269 C226.79,553.1269 238.19,553.1269 249.6,553.1269 " fill="none" id="mpnats-nats" style="stroke:#181818;stroke-width:1.0;"/></g><!--link telegraf to mpnats--><g id="link_telegraf_mpnats"><path d="M206,331.9269 C206,383.7669 206,504.2069 206,537.8169 " fill="none" id="telegraf-to-mpnats" style="stroke:#181818;stroke-width:1.0;stroke-dasharray:7.0,7.0;"/><polygon fill="#181818" points="206,543.8169,210,534.8169,206,538.8169,202,534.8169,206,543.8169" style="stroke:#181818;stroke-width:1.0;"/></g><!--link loki to logfmt--><g id="link_loki_logfmt"><path d="M362.7,225.3569 C357.14,248.5569 348.69,283.7869 344.93,299.4969 " fill="none" id="loki-logfmt" style="stroke:#181818;stroke-width:1.0;"/></g><!--link telegraf to logfmt--><g id="link_telegraf_logfmt"><path d="M252.29,308.5369 C279.46,308.5369 300.62,308.5369 327.79,308.5369 " fill="none" id="telegraf-to-logfmt" style="stroke:#181818;stroke-width:1.0;stroke-dasharray:7.0,7.0;"/><polygon fill="#181818" points="333.79,308.5369,324.79,304.5369,328.79,308.5369,324.79,312.5369,333.79,308.5369" style="stroke:#181818;stroke-width:1.0;"/></g><!--link logql to loki--><g id="link_logql_loki"><path d="M312.39,202.2369 C323.69,202.2369 334.98,202.2369 346.28,202.2369 " fill="none" id="logql-loki" style="stroke:#181818;stroke-width:1.0;"/></g><!--link oinflux to ilp--><g id="link_oinflux_ilp"><path d="M55.67,225.3569 C60.56,248.5569 67.99,283.7869 71.3,299.4969 " fill="none" id="oinflux-ilp" style="stroke:#181818;stroke-width:1.0;"/></g><!--reverse link ilp to telegraf--><g id="link_ilp_telegraf"><path d="M88.35,308.5369 C114.11,308.5369 133.87,308.5369 159.63,308.5369 " fill="none" id="ilp-backto-telegraf" style="stroke:#181818;stroke-width:1.0;stroke-dasharray:7.0,7.0;"/><polygon fill="#181818" points="82.35,308.5369,91.35,312.5369,87.35,308.5369,91.35,304.5369,82.35,308.5369" style="stroke:#181818;stroke-width:1.0;"/></g><!--link oinflux to iql--><g id="link_oinflux_iql"><path d="M78.84,202.2369 C90.46,202.2369 102.07,202.2369 113.69,202.2369 " fill="none" id="oinflux-iql" style="stroke:#181818;stroke-width:1.0;"/></g><!--reverse link iql to grafana--><g id="link_iql_grafana"><path d="M138.49,202.2369 C150.02,202.2369 155.55,202.2369 167.09,202.2369 " fill="none" id="iql-backto-grafana" style="stroke:#181818;stroke-width:1.0;stroke-dasharray:7.0,7.0;"/><polygon fill="#181818" points="132.49,202.2369,141.49,206.2369,137.49,202.2369,141.49,198.2369,132.49,202.2369" style="stroke:#181818;stroke-width:1.0;"/></g><!--link grafana to logql--><g id="link_grafana_logql"><path d="M258.7,202.2369 C270.35,202.2369 276.01,202.2369 287.66,202.2369 " fill="none" id="grafana-to-logql" style="stroke:#181818;stroke-width:1.0;stroke-dasharray:7.0,7.0;"/><polygon fill="#181818" points="293.66,202.2369,284.66,198.2369,288.66,202.2369,284.66,206.2369,293.66,202.2369" style="stroke:#181818;stroke-width:1.0;"/></g><!--link user to grafana--><g id="link_user_grafana"><path d="M213,119.3669 C213,138.9069 213,156.1669 213,172.8869 " fill="none" id="user-to-grafana" style="stroke:#181818;stroke-width:1.0;stroke-dasharray:7.0,7.0;"/><polygon fill="#181818" points="213,178.8869,217,169.8869,213,173.8869,209,169.8869,213,178.8869" style="stroke:#181818;stroke-width:1.0;"/></g><!--SRC=[RPB1JiCm38RlVGeh1sxT4w1Ua2QGEZ64E23j4efRHIHnIRo1X7Xtd3GjtQ27rldzvxFZb0rR14Kd32U37wgg-g2TA8_RMzXfhmTqw1dsLZFt59o2hmhawSYDv5DAjJJ4Wxyw-1roC5rKe2DupJ4RZMSClUw4cRISTEEIJW7KjfwrxwM3crGX8coDnN-gCbeSWkupS5vaqxo0ZJpD3CwfLytwHGlKqfkvQC_Iq3jEj2dAwUI3kbvBl_XcBQ_EAGDvQ5KXlTi2aWZggV1vByRtzlYPx3I5bxoxoT0QZx0FnDIHpNXZn-mj-rAZioHVkDwS3-OFidHfIeyB9YiN0qyK-Hyca1n5u6kfn6KeibqkKdTC0TJp_LCkSumOglIIYscA_mS0]--></g></svg>